<mxfile host="app.diagrams.net" agent="Mozilla/5.0 (X11; Linux x86_64) AppleWebKit/537.36 (KHTML, like Gecko) Chrome/128.0.0.0 Safari/537.36" version="24.7.17">
  <diagram name="Page-1" id="uBzJqkvn-coMeqm4FWbq">
    <mxGraphModel dx="690" dy="509" grid="1" gridSize="10" guides="1" tooltips="1" connect="1" arrows="1" fold="1" page="1" pageScale="1" pageWidth="850" pageHeight="1100" math="0" shadow="0">
      <root>
        <mxCell id="0" />
        <mxCell id="1" parent="0" />
        <mxCell id="qKa-sRlJu5exaVu3pFO9-18" style="edgeStyle=orthogonalEdgeStyle;rounded=0;orthogonalLoop=1;jettySize=auto;html=1;exitX=1;exitY=0.5;exitDx=0;exitDy=0;entryX=0;entryY=0.5;entryDx=0;entryDy=0;" parent="1" source="qKa-sRlJu5exaVu3pFO9-1" target="qKa-sRlJu5exaVu3pFO9-7" edge="1">
          <mxGeometry relative="1" as="geometry" />
        </mxCell>
        <mxCell id="qKa-sRlJu5exaVu3pFO9-19" value="Объект&lt;div&gt;статьи&lt;/div&gt;" style="edgeLabel;html=1;align=center;verticalAlign=middle;resizable=0;points=[];" parent="qKa-sRlJu5exaVu3pFO9-18" vertex="1" connectable="0">
          <mxGeometry x="-0.6076" y="1" relative="1" as="geometry">
            <mxPoint x="18" y="-24" as="offset" />
          </mxGeometry>
        </mxCell>
        <mxCell id="qKa-sRlJu5exaVu3pFO9-30" style="edgeStyle=orthogonalEdgeStyle;rounded=0;orthogonalLoop=1;jettySize=auto;html=1;exitX=0.5;exitY=1;exitDx=0;exitDy=0;" parent="1" edge="1">
          <mxGeometry relative="1" as="geometry">
            <mxPoint x="329.71" y="360" as="targetPoint" />
            <mxPoint x="329.71" y="280" as="sourcePoint" />
          </mxGeometry>
        </mxCell>
        <mxCell id="qKa-sRlJu5exaVu3pFO9-31" value="Правила&lt;div&gt;валидации&lt;/div&gt;&lt;div&gt;данных&lt;/div&gt;&lt;div&gt;статьи&lt;/div&gt;" style="edgeLabel;html=1;align=center;verticalAlign=middle;resizable=0;points=[];" parent="qKa-sRlJu5exaVu3pFO9-30" vertex="1" connectable="0">
          <mxGeometry x="-0.2864" relative="1" as="geometry">
            <mxPoint y="11" as="offset" />
          </mxGeometry>
        </mxCell>
        <mxCell id="qKa-sRlJu5exaVu3pFO9-1" value="Загрузка исходной статьи" style="rounded=0;whiteSpace=wrap;html=1;" parent="1" vertex="1">
          <mxGeometry x="270" y="360" width="120" height="70" as="geometry" />
        </mxCell>
        <mxCell id="qKa-sRlJu5exaVu3pFO9-5" value="" style="endArrow=none;html=1;rounded=0;exitX=0;exitY=0.25;exitDx=0;exitDy=0;entryX=0.125;entryY=0.02;entryDx=0;entryDy=0;entryPerimeter=0;" parent="1" edge="1">
          <mxGeometry width="50" height="50" relative="1" as="geometry">
            <mxPoint x="270" y="375" as="sourcePoint" />
            <mxPoint x="285" y="361.19999999999993" as="targetPoint" />
          </mxGeometry>
        </mxCell>
        <mxCell id="qKa-sRlJu5exaVu3pFO9-6" value="A0.1" style="text;html=1;align=center;verticalAlign=middle;whiteSpace=wrap;rounded=0;" parent="1" vertex="1">
          <mxGeometry x="340" y="410" width="50" height="20" as="geometry" />
        </mxCell>
        <mxCell id="qKa-sRlJu5exaVu3pFO9-16" style="edgeStyle=orthogonalEdgeStyle;rounded=0;orthogonalLoop=1;jettySize=auto;html=1;exitX=1;exitY=0.5;exitDx=0;exitDy=0;entryX=0;entryY=0.5;entryDx=0;entryDy=0;" parent="1" source="qKa-sRlJu5exaVu3pFO9-7" target="qKa-sRlJu5exaVu3pFO9-13" edge="1">
          <mxGeometry relative="1" as="geometry" />
        </mxCell>
        <mxCell id="qKa-sRlJu5exaVu3pFO9-17" value="Объект&lt;div&gt;переведённой&lt;/div&gt;&lt;div&gt;статьи&lt;/div&gt;" style="edgeLabel;html=1;align=center;verticalAlign=middle;resizable=0;points=[];" parent="qKa-sRlJu5exaVu3pFO9-16" vertex="1" connectable="0">
          <mxGeometry x="-0.4841" y="1" relative="1" as="geometry">
            <mxPoint x="22" y="-24" as="offset" />
          </mxGeometry>
        </mxCell>
        <mxCell id="qKa-sRlJu5exaVu3pFO9-22" style="edgeStyle=orthogonalEdgeStyle;rounded=0;orthogonalLoop=1;jettySize=auto;html=1;exitX=0.5;exitY=0;exitDx=0;exitDy=0;" parent="1" edge="1">
          <mxGeometry relative="1" as="geometry">
            <mxPoint x="540" y="430" as="targetPoint" />
            <mxPoint x="540" y="520" as="sourcePoint" />
          </mxGeometry>
        </mxCell>
        <mxCell id="qKa-sRlJu5exaVu3pFO9-23" value="Внешний&lt;div&gt;GPT сервис&lt;/div&gt;" style="edgeLabel;html=1;align=center;verticalAlign=middle;resizable=0;points=[];" parent="qKa-sRlJu5exaVu3pFO9-22" vertex="1" connectable="0">
          <mxGeometry x="-0.0851" y="1" relative="1" as="geometry">
            <mxPoint as="offset" />
          </mxGeometry>
        </mxCell>
        <mxCell id="qKa-sRlJu5exaVu3pFO9-7" value="Выполнение перевода" style="rounded=0;whiteSpace=wrap;html=1;" parent="1" vertex="1">
          <mxGeometry x="450" y="360" width="120" height="70" as="geometry" />
        </mxCell>
        <mxCell id="qKa-sRlJu5exaVu3pFO9-8" value="" style="endArrow=none;html=1;rounded=0;exitX=0;exitY=0.25;exitDx=0;exitDy=0;entryX=0.125;entryY=0.02;entryDx=0;entryDy=0;entryPerimeter=0;" parent="1" edge="1">
          <mxGeometry width="50" height="50" relative="1" as="geometry">
            <mxPoint x="450" y="375" as="sourcePoint" />
            <mxPoint x="465" y="361.19999999999993" as="targetPoint" />
          </mxGeometry>
        </mxCell>
        <mxCell id="qKa-sRlJu5exaVu3pFO9-9" value="A0.2" style="text;html=1;align=center;verticalAlign=middle;whiteSpace=wrap;rounded=0;" parent="1" vertex="1">
          <mxGeometry x="520" y="410" width="50" height="20" as="geometry" />
        </mxCell>
        <mxCell id="qKa-sRlJu5exaVu3pFO9-26" style="edgeStyle=orthogonalEdgeStyle;rounded=0;orthogonalLoop=1;jettySize=auto;html=1;exitX=1;exitY=0.5;exitDx=0;exitDy=0;" parent="1" source="qKa-sRlJu5exaVu3pFO9-13" edge="1">
          <mxGeometry relative="1" as="geometry">
            <mxPoint x="840" y="395.28571428571433" as="targetPoint" />
          </mxGeometry>
        </mxCell>
        <mxCell id="qKa-sRlJu5exaVu3pFO9-27" value="Документ&lt;div&gt;перевода&lt;/div&gt;&lt;div&gt;статьи&lt;/div&gt;" style="edgeLabel;html=1;align=center;verticalAlign=middle;resizable=0;points=[];" parent="qKa-sRlJu5exaVu3pFO9-26" vertex="1" connectable="0">
          <mxGeometry x="0.3266" y="3" relative="1" as="geometry">
            <mxPoint x="-10" y="-23" as="offset" />
          </mxGeometry>
        </mxCell>
        <mxCell id="qKa-sRlJu5exaVu3pFO9-13" value="Получение документа перевода" style="rounded=0;whiteSpace=wrap;html=1;" parent="1" vertex="1">
          <mxGeometry x="660" y="360" width="120" height="70" as="geometry" />
        </mxCell>
        <mxCell id="qKa-sRlJu5exaVu3pFO9-14" value="" style="endArrow=none;html=1;rounded=0;exitX=0;exitY=0.25;exitDx=0;exitDy=0;entryX=0.125;entryY=0.02;entryDx=0;entryDy=0;entryPerimeter=0;" parent="1" edge="1">
          <mxGeometry width="50" height="50" relative="1" as="geometry">
            <mxPoint x="660" y="375" as="sourcePoint" />
            <mxPoint x="675" y="361.19999999999993" as="targetPoint" />
          </mxGeometry>
        </mxCell>
        <mxCell id="qKa-sRlJu5exaVu3pFO9-15" value="A0.3" style="text;html=1;align=center;verticalAlign=middle;whiteSpace=wrap;rounded=0;" parent="1" vertex="1">
          <mxGeometry x="730" y="410" width="50" height="20" as="geometry" />
        </mxCell>
        <mxCell id="qKa-sRlJu5exaVu3pFO9-24" style="edgeStyle=orthogonalEdgeStyle;rounded=0;orthogonalLoop=1;jettySize=auto;html=1;exitX=0.5;exitY=0;exitDx=0;exitDy=0;" parent="1" edge="1">
          <mxGeometry relative="1" as="geometry">
            <mxPoint x="719.71" y="430" as="targetPoint" />
            <mxPoint x="719.71" y="520" as="sourcePoint" />
          </mxGeometry>
        </mxCell>
        <mxCell id="qKa-sRlJu5exaVu3pFO9-25" value="База&lt;div&gt;данных&lt;/div&gt;" style="edgeLabel;html=1;align=center;verticalAlign=middle;resizable=0;points=[];" parent="qKa-sRlJu5exaVu3pFO9-24" vertex="1" connectable="0">
          <mxGeometry x="-0.0851" y="1" relative="1" as="geometry">
            <mxPoint as="offset" />
          </mxGeometry>
        </mxCell>
        <mxCell id="qKa-sRlJu5exaVu3pFO9-28" style="edgeStyle=orthogonalEdgeStyle;rounded=0;orthogonalLoop=1;jettySize=auto;html=1;exitX=1;exitY=0.5;exitDx=0;exitDy=0;" parent="1" edge="1">
          <mxGeometry relative="1" as="geometry">
            <mxPoint x="270" y="394.88571428571436" as="targetPoint" />
            <mxPoint x="210" y="394.6" as="sourcePoint" />
          </mxGeometry>
        </mxCell>
        <mxCell id="qKa-sRlJu5exaVu3pFO9-29" value="Данные&lt;div&gt;статьи&lt;/div&gt;" style="edgeLabel;html=1;align=center;verticalAlign=middle;resizable=0;points=[];" parent="qKa-sRlJu5exaVu3pFO9-28" vertex="1" connectable="0">
          <mxGeometry x="0.3266" y="3" relative="1" as="geometry">
            <mxPoint x="-10" y="-23" as="offset" />
          </mxGeometry>
        </mxCell>
        <mxCell id="qKa-sRlJu5exaVu3pFO9-32" style="edgeStyle=orthogonalEdgeStyle;rounded=0;orthogonalLoop=1;jettySize=auto;html=1;exitX=0.5;exitY=1;exitDx=0;exitDy=0;" parent="1" edge="1">
          <mxGeometry relative="1" as="geometry">
            <mxPoint x="479.71" y="360" as="targetPoint" />
            <mxPoint x="479.71" y="280" as="sourcePoint" />
          </mxGeometry>
        </mxCell>
        <mxCell id="qKa-sRlJu5exaVu3pFO9-33" value="Конечный&lt;div&gt;язык&lt;/div&gt;" style="edgeLabel;html=1;align=center;verticalAlign=middle;resizable=0;points=[];" parent="qKa-sRlJu5exaVu3pFO9-32" vertex="1" connectable="0">
          <mxGeometry x="-0.2864" relative="1" as="geometry">
            <mxPoint y="11" as="offset" />
          </mxGeometry>
        </mxCell>
        <mxCell id="qKa-sRlJu5exaVu3pFO9-37" style="edgeStyle=orthogonalEdgeStyle;rounded=0;orthogonalLoop=1;jettySize=auto;html=1;" parent="1" edge="1">
          <mxGeometry relative="1" as="geometry">
            <mxPoint x="329.71" y="430" as="targetPoint" />
            <mxPoint x="330" y="520" as="sourcePoint" />
            <Array as="points">
              <mxPoint x="330" y="490" />
              <mxPoint x="330" y="490" />
            </Array>
          </mxGeometry>
        </mxCell>
        <mxCell id="FMmnlDa48nqs-zbiRRiQ-3" value="Пользователь" style="edgeLabel;html=1;align=center;verticalAlign=middle;resizable=0;points=[];" vertex="1" connectable="0" parent="qKa-sRlJu5exaVu3pFO9-37">
          <mxGeometry x="0.1108" y="-2" relative="1" as="geometry">
            <mxPoint as="offset" />
          </mxGeometry>
        </mxCell>
        <mxCell id="FMmnlDa48nqs-zbiRRiQ-1" style="edgeStyle=orthogonalEdgeStyle;rounded=0;orthogonalLoop=1;jettySize=auto;html=1;exitX=0.5;exitY=1;exitDx=0;exitDy=0;" edge="1" parent="1">
          <mxGeometry relative="1" as="geometry">
            <mxPoint x="559.71" y="360" as="targetPoint" />
            <mxPoint x="559.71" y="280" as="sourcePoint" />
          </mxGeometry>
        </mxCell>
        <mxCell id="FMmnlDa48nqs-zbiRRiQ-2" value="Настройки&lt;div&gt;переводчика&lt;/div&gt;" style="edgeLabel;html=1;align=center;verticalAlign=middle;resizable=0;points=[];" vertex="1" connectable="0" parent="FMmnlDa48nqs-zbiRRiQ-1">
          <mxGeometry x="-0.2864" relative="1" as="geometry">
            <mxPoint y="11" as="offset" />
          </mxGeometry>
        </mxCell>
      </root>
    </mxGraphModel>
  </diagram>
</mxfile>
